<?xml version="1.0" standalone="no"?>
<!DOCTYPE svg PUBLIC "-//W3C//DTD SVG 20010904//EN"
 "http://www.w3.org/TR/2001/REC-SVG-20010904/DTD/svg10.dtd">
<svg version="1.0" xmlns="http://www.w3.org/2000/svg"
 width="400.000000pt" height="400.000000pt" viewBox="0 0 400.000000 400.000000"
 preserveAspectRatio="xMidYMid meet">
<metadata>
Created by potrace 1.11, written by Peter Selinger 2001-2013
</metadata>
<g transform="translate(0.000000,400.000000) scale(0.100000,-0.100000)"
fill="#000000" stroke="none">
<path d="M0 2000 l0 -1301 137 3 137 3 -1 530 c0 292 -3 640 -7 775 -3 135 -8
346 -11 470 l-4 225 34 -120 c19 -66 43 -151 54 -190 10 -38 56 -200 101 -360
44 -159 117 -418 161 -575 43 -157 85 -305 93 -330 7 -25 37 -132 67 -237 l53
-193 103 0 c56 0 104 4 107 9 3 5 17 49 30 97 13 49 45 163 71 254 25 91 82
293 126 450 137 489 146 518 223 790 41 146 84 299 95 340 l21 75 -6 -295 c-3
-162 -8 -344 -10 -405 -3 -92 -8 -1243 -5 -1297 1 -16 14 -18 136 -18 101 0
135 3 135 13 1 15 1 2569 0 2580 0 4 -80 6 -177 5 l-177 -3 -22 -85 c-21 -82
-61 -231 -159 -595 -26 -93 -48 -174 -49 -180 -2 -5 -6 -23 -11 -40 -10 -41
-139 -524 -176 -660 -16 -60 -55 -209 -88 -329 l-58 -220 -17 50 c-9 28 -18
59 -20 70 -2 10 -13 53 -24 94 -37 138 -79 294 -107 395 -14 55 -37 141 -50
190 -13 50 -38 142 -55 205 -17 63 -42 158 -56 210 -14 52 -36 133 -49 180
-13 47 -26 96 -29 110 -3 14 -40 156 -83 315 l-78 290 -178 3 -177 2 0 -1300z"/>
<path d="M2127 3289 c-27 -4 -51 -10 -54 -13 -3 -3 -6 -70 -7 -149 l-1 -144
53 19 c142 50 310 18 403 -76 58 -58 119 -214 134 -340 3 -27 7 -52 10 -56 3
-5 227 -7 257 -1 3 0 5 13 3 29 -1 15 -6 57 -10 94 -9 97 -47 227 -92 313 -90
175 -219 278 -404 321 -41 10 -241 12 -292 3z"/>
<path d="M3215 3293 c-96 -19 -212 -63 -252 -95 -9 -7 -2 -25 26 -68 21 -32
49 -85 61 -117 13 -32 25 -60 26 -61 1 -2 31 10 66 27 107 53 235 60 343 20
124 -46 220 -208 242 -409 3 -30 8 -57 10 -60 3 -3 63 -5 135 -5 l129 -1 -6
61 c-10 106 -14 128 -35 210 -62 241 -199 401 -401 472 -62 21 -95 26 -199 28
-69 1 -134 1 -145 -2z"/>
<path d="M2273 1860 l2 -135 190 0 190 0 3 -294 2 -293 -49 -48 c-55 -53 -132
-94 -201 -106 -112 -19 -227 -8 -298 30 -19 10 -36 15 -39 12 -5 -5 -6 -47 -4
-222 l1 -71 33 -8 c136 -30 313 -26 427 9 157 49 277 137 364 269 l35 52 -2
470 -2 470 -327 0 -327 1 2 -136z"/>
<path d="M3349 1995 c-1 0 -2 -59 -3 -132 -1 -110 1 -132 14 -135 8 -2 95 -4
193 -3 l177 0 1 -115 c0 -63 0 -196 -1 -295 l-1 -180 -37 -38 c-115 -119 -292
-152 -498 -92 -17 5 -26 -2 -48 -39 -15 -25 -49 -75 -76 -111 l-50 -65 47 -24
c91 -45 167 -60 308 -59 258 1 436 85 574 272 l51 68 0 474 0 474 -325 1
c-179 0 -326 0 -326 -1z"/>
</g>
</svg>
